<?xml version="1.0" standalone="no"?>
<!DOCTYPE svg PUBLIC "-//W3C//DTD SVG 20010904//EN"
 "http://www.w3.org/TR/2001/REC-SVG-20010904/DTD/svg10.dtd">
<svg version="1.0" xmlns="http://www.w3.org/2000/svg"
 width="32.000000pt" height="32.000000pt" viewBox="0 0 32.000000 32.000000"
 preserveAspectRatio="xMidYMid meet">

<g transform="translate(0.000000,32.000000) scale(0.100000,-0.100000)"
fill="#000000" stroke="none">
<path d="M187 239 c7 -7 15 -10 18 -7 3 3 -2 9 -12 12 -14 6 -15 5 -6 -5z"/>
<path d="M107 213 c-13 -12 -7 -33 12 -50 16 -13 18 -21 10 -37 -10 -20 -10
-20 5 -2 13 16 18 17 31 6 8 -7 15 -22 15 -34 0 -17 2 -18 10 -6 14 21 13 27
-11 49 -15 14 -19 26 -15 43 l7 23 -14 -23 c-13 -23 -13 -23 -31 -3 -10 11
-15 25 -11 30 7 12 2 15 -8 4z"/>
<path d="M175 210 c3 -5 8 -10 11 -10 2 0 4 5 4 10 0 6 -5 10 -11 10 -5 0 -7
-4 -4 -10z"/>
<path d="M96 85 c4 -8 13 -15 21 -15 13 0 13 3 3 15 -7 8 -16 15 -21 15 -5 0
-6 -7 -3 -15z"/>
</g>
</svg>
